<svg version="1.1" xmlns="http://www.w3.org/2000/svg" xmlns:xlink="http://www.w3.org/1999/xlink" width="512.000000pt" height="512.000000pt" viewBox="0,0,256,256"><g fill="#cbbfbf" fill-rule="nonzero" stroke="none" stroke-width="1" stroke-linecap="butt" stroke-linejoin="miter" stroke-miterlimit="10" stroke-dasharray="" stroke-dashoffset="0" font-family="none" font-weight="none" font-size="none" text-anchor="none" style="mix-blend-mode: normal"><g transform="translate(7.76364,7.99187) scale(0.5,0.5)"><g transform="translate(0,512) scale(0.1,-0.1)"><path d="M975,4785c-324,-60 -582,-319 -641,-645c-20,-111 -20,-2729 0,-2840c59,-327 320,-587 646,-646c109,-19 1452,-19 1560,0c328,60 586,318 646,646c8,47 13,153 14,283c0,235 -5,257 -68,305c-51,39 -133,39 -184,0c-63,-48 -68,-71 -68,-300c0,-148 -4,-219 -15,-261c-45,-173 -178,-307 -350,-352c-88,-23 -1422,-23 -1510,0c-172,45 -305,179 -350,352c-23,87 -22,2700 0,2788c45,172 179,305 352,350c86,23 1421,22 1508,0c172,-45 305,-179 350,-352c11,-42 15,-113 15,-261c0,-229 5,-252 68,-300c51,-39 133,-39 184,0c63,48 68,70 68,305c-1,130 -6,236 -14,283c-61,334 -330,597 -663,649c-108,17 -1455,13 -1548,-4z"></path><path d="M3693,3420c-46,-20 -79,-64 -89,-117c-12,-65 10,-100 174,-265l156,-158h-943c-1050,0 -984,4 -1039,-68c-39,-51 -39,-133 0,-184c55,-72 -11,-68 1039,-68h943l-161,-163c-173,-174 -184,-192 -169,-273c9,-47 73,-111 120,-120c88,-16 86,-17 433,329c345,343 343,341 329,425c-6,32 -44,74 -314,340c-190,188 -322,311 -347,322c-50,25 -79,25 -132,0z"></path></g></g></g></svg>