<svg version="1.1" xmlns="http://www.w3.org/2000/svg" xmlns:xlink="http://www.w3.org/1999/xlink" width="512px" height="640px" viewBox="0,0,204.79688,256"><g fill="#ffffff" fill-rule="nonzero" stroke="none" stroke-width="1" stroke-linecap="butt" stroke-linejoin="miter" stroke-miterlimit="10" stroke-dasharray="" stroke-dashoffset="0" font-family="none" font-weight="none" font-size="none" text-anchor="none" style="mix-blend-mode: normal"><g transform="translate(2.99596,18.4545) scale(0.4,0.4)"><path d="M263.739,285h-15.478c-20.712,0 -37.73,16.36 -39.277,36.947c28.11303,20.12674 65.91897,20.12674 94.032,0c-1.547,-20.587 -18.565,-36.947 -39.277,-36.947z"></path><circle cx="256.104" cy="245.969" r="24.544"></circle><path d="M198.285,312.82c4.34196,-18.09852 18.16475,-32.41449 36.1,-37.388c-12.69914,-9.3785 -17.94123,-25.85081 -12.99798,-40.84376c4.94325,-14.99295 18.95442,-25.11737 34.74125,-25.1039c15.78684,0.01347 29.78071,10.16177 34.69837,25.16314c4.91766,15.00136 -0.35252,31.46471 -13.06764,40.82153c17.87567,5.00059 31.63818,19.29473 35.958,37.347c31.31314,-31.76794 31.06754,-82.86814 -0.54953,-114.33361c-31.61707,-31.46547 -82.71787,-31.46547 -114.33493,0c-31.61707,31.46547 -31.86268,82.56568 -0.54953,114.33361z"></path><path d="M249,125v40c0,3.31371 2.68629,6 6,6c3.31371,0 6,-2.68629 6,-6v-40c0,-3.31371 -2.68629,-6 -6,-6c-3.31371,0 -6,2.68629 -6,6z"></path><path d="M262,387v-40c0,-3.31371 -2.68629,-6 -6,-6c-3.31371,0 -6,2.68629 -6,6v40c0,3.31371 2.68629,6 6,6c3.31371,0 6,-2.68629 6,-6z"></path><path d="M393,256c0,-3.31371 -2.68629,-6 -6,-6h-40c-3.31371,0 -6,2.68629 -6,6c0,3.31371 2.68629,6 6,6h40c3.31371,0 6,-2.68629 6,-6z"></path><path d="M165,251h-40c-3.31371,0 -6,2.68629 -6,6c0,3.31371 2.68629,6 6,6h40c3.31371,0 6,-2.68629 6,-6c0,-3.31371 -2.68629,-6 -6,-6z"></path><path d="M319.923,197.575c1.59168,0.00173 3.11851,-0.63052 4.243,-1.757l28.626,-28.627c2.34307,-2.34334 2.34284,-6.14243 -0.0005,-8.4855c-2.34334,-2.34307 -6.14243,-2.34284 -8.4855,0.0005l-28.625,28.627c-1.71545,1.71597 -2.22853,4.29622 -1.30007,6.53793c0.92846,2.24171 3.11569,3.70355 5.54207,3.70407z"></path><path d="M158.988,353.515c1.12525,1.12544 2.65152,1.75772 4.243,1.75772c1.59148,0 3.11775,-0.63228 4.243,-1.75772l28.626,-28.627c2.34307,-2.34334 2.34284,-6.14243 -0.0005,-8.4855c-2.34334,-2.34307 -6.14243,-2.34284 -8.4855,0.0005l-28.626,28.626c-1.12544,1.12525 -1.75772,2.65152 -1.75772,4.243c0,1.59148 0.63228,3.11775 1.75772,4.243z"></path><path d="M316.183,315.9c-2.34296,2.34311 -2.34296,6.14189 0,8.485l28.627,28.627c1.5117,1.53616 3.73117,2.14352 5.81441,1.59111c2.08324,-0.55241 3.71015,-2.17971 4.26207,-4.26307c0.55192,-2.08337 -0.05596,-4.3027 -1.59248,-5.81404l-28.627,-28.626c-2.343,-2.34229 -6.141,-2.34229 -8.484,0z"></path><path d="M187.112,196.32c2.34856,2.31061 6.12093,2.29525 8.45059,-0.03441c2.32966,-2.32966 2.34502,-6.10203 0.03441,-8.45059l-28.627,-28.627c-2.34334,-2.34307 -6.14243,-2.34284 -8.4855,0.0005c-2.34307,2.34334 -2.34284,6.14243 0.0005,8.4855z"></path><path d="M222.655,111h66.69c1.54969,-0.00118 3.03127,-0.63705 4.09971,-1.75953c1.06844,-1.12248 1.6305,-2.6336 1.55529,-4.18147v-6.086c0,-19.017 -15.127,-34.973 -34.144,-34.973h-0.656c11.915,-1 21.029,-12.11 21.029,-24.577c0.01684,-13.89825 -11.23625,-25.17866 -25.1345,-25.1955c-13.89825,-0.01684 -25.17866,11.23625 -25.1955,25.1345c0.001,12.467 9.115,23.638 21.03,24.638h-0.785c-19.017,0 -34.144,15.956 -34.144,34.973v6.086c-0.07521,1.54786 0.48684,3.05899 1.55529,4.18147c1.06844,1.12248 2.55002,1.75835 4.09971,1.75953z"></path><path d="M295,491.5v-6.086c0.06472,-9.10006 -3.50313,-17.85004 -9.91262,-24.31021c-6.40949,-6.46017 -15.13109,-10.09683 -24.23138,-10.10379h-0.656c12.91636,-2.15178 22.02439,-13.8489 20.94483,-26.8987c-1.07957,-13.0498 -11.98595,-23.09119 -25.08033,-23.09119c-13.09437,0 -24.00076,10.04139 -25.08033,23.09119c-1.07957,13.0498 8.02846,24.74691 20.94483,26.8987h-0.785c-9.10029,0.00696 -17.82189,3.64362 -24.23138,10.10379c-6.40949,6.46017 -9.97734,15.21015 -9.91262,24.31021v6.086c0,3.313 2.342,6.5 5.655,6.5h66.69c3.313,0 5.655,-3.187 5.655,-6.5z"></path><path d="M463.012,258h-0.656c12.9158,-2.15178 22.02339,-13.84844 20.94382,-26.89768c-1.07956,-13.04924 -11.9855,-23.09019 -25.07932,-23.09019c-13.09382,0 -23.99976,10.04094 -25.07932,23.09019c-1.07956,13.04924 8.02802,24.74591 20.94382,26.89768h-0.785c-9.09341,-0.04934 -17.83018,3.53384 -24.27032,9.95389c-6.44014,6.42005 -10.0506,15.14559 -10.02968,24.23911v6.086c-0.03184,1.54279 0.57334,3.03055 1.67306,4.11305c1.09972,1.0825 2.59685,1.66413 4.13894,1.60795h66.688c1.51063,0.04326 2.9693,-0.55333 4.01666,-1.64277c1.04736,-1.08945 1.58605,-2.57048 1.48334,-4.07823v-6.086c0.09135,-9.06067 -3.45354,-17.77976 -9.84144,-24.20618c-6.38789,-6.42642 -15.08551,-10.02368 -24.14656,-9.98682z"></path><path d="M93,298.279v-6.086c0.02093,-9.09352 -3.58954,-17.81905 -10.02968,-24.23911c-6.44014,-6.42005 -15.17692,-10.00323 -24.27032,-9.95389h-0.655c12.91567,-2.15202 22.02299,-13.84872 20.9433,-26.89785c-1.07969,-13.04913 -11.98558,-23.08993 -25.0793,-23.08993c-13.09372,0 -23.99961,10.0408 -25.0793,23.08993c-1.07969,13.04913 8.02764,24.74583 20.9433,26.89785h-0.785c-19.016,0 -34.988,15.176 -34.988,34.193v6.086c0,3.314 3.187,5.721 6.5,5.721h66.688c1.54209,0.05618 3.03922,-0.52545 4.13894,-1.60795c1.09972,-1.0825 1.7049,-2.57026 1.67306,-4.11305z"></path><path d="M437.886,380.393c0.11535,-13.3884 -10.27236,-24.52314 -23.63654,-25.33635c-13.36418,-0.81321 -25.02535,8.97984 -26.53421,22.28345c-1.50887,13.30361 7.6629,25.45949 20.86975,27.6599h-0.785c-19.18191,0.19649 -34.66625,15.73155 -34.8,34.914v6.086c0.14784,3.37212 2.93672,6.02314 6.312,6h66.688c3.31371,0 6,-2.68629 6,-6v-6.086c0,-19.014 -15.472,-34.914 -34.488,-34.914h-0.656c12.09062,-1.94461 20.99288,-12.36105 21.03,-24.607z"></path><path d="M60,439.914v6.086c0,3.31371 2.68629,6 6,6h66.688c3.37528,0.02314 6.16416,-2.62788 6.312,-6v-6.086c-0.13375,-19.18245 -15.61809,-34.71751 -34.8,-34.914h-0.655c12.91622,-2.15203 22.02399,-13.84918 20.9443,-26.89887c-1.07969,-13.04969 -11.98603,-23.09093 -25.0803,-23.09093c-13.09428,0 -24.00061,10.04125 -25.0803,23.09093c-1.07969,13.04969 8.02808,24.74684 20.9443,26.89887h-0.785c-19.016,0 -34.488,15.9 -34.488,34.914z"></path><path d="M379.312,157h66.688c3.313,0 6,-3.128 6,-6.441v-6.086c-0.02316,-19.03517 -15.45282,-34.45812 -34.488,-34.473h-0.656c12.9158,-2.15178 22.02339,-13.84844 20.94382,-26.89768c-1.07956,-13.04924 -11.9855,-23.09019 -25.07932,-23.09019c-13.09382,0 -23.99976,10.04094 -25.07932,23.09019c-1.07956,13.04924 8.02802,24.74591 20.94382,26.89768h-0.785c-19.017,0 -34.8,15.456 -34.8,34.473v6.086c0.11113,3.46079 2.85417,6.25989 6.312,6.441z"></path><path d="M66,157h66.688c3.45783,-0.18111 6.20087,-2.98021 6.312,-6.441v-6.086c0,-19.017 -15.783,-34.473 -34.8,-34.473h-0.655c12.91567,-2.15202 22.02299,-13.84872 20.9433,-26.89785c-1.07969,-13.04913 -11.98558,-23.08993 -25.0793,-23.08993c-13.09372,0 -23.99961,10.0408 -25.0793,23.08993c-1.07969,13.04913 8.02764,24.74583 20.9433,26.89785h-0.785c-19.03518,0.01488 -34.46484,15.43783 -34.488,34.473v6.086c0,3.313 2.687,6.441 6,6.441z"></path><text x="0" y="527" font-family="'Helvetica Neue', Helvetica, Arial-Unicode, Arial, Sans-serif" font-weight="bold" font-size="5" text-anchor="start">Created by Kiran Shastry</text><text x="0" y="532" font-family="'Helvetica Neue', Helvetica, Arial-Unicode, Arial, Sans-serif" font-weight="bold" font-size="5" text-anchor="start">from the Noun Project</text></g></g></svg>